<?xml version="1.0" standalone="no"?>
<!DOCTYPE svg PUBLIC "-//W3C//DTD SVG 20010904//EN"
 "http://www.w3.org/TR/2001/REC-SVG-20010904/DTD/svg10.dtd">
<svg version="1.0" xmlns="http://www.w3.org/2000/svg"
 width="1180.000000pt" height="1280.000000pt" viewBox="0 0 1180.000000 1280.000000"
 preserveAspectRatio="xMidYMid meet">
<metadata>
Created by potrace 1.15, written by Peter Selinger 2001-2017
</metadata>
<g transform="translate(0.000000,1280.000000) scale(0.100000,-0.100000)"
fill="#000000" stroke="none">
<path d="M8615 12390 c-346 -225 -630 -414 -630 -420 0 -5 54 -61 121 -123
514 -479 926 -1043 1277 -1747 470 -943 734 -1950 813 -3105 20 -303 15 -1009
-10 -1295 -98 -1114 -369 -2104 -822 -2995 -325 -641 -691 -1148 -1167 -1618
-104 -103 -188 -189 -186 -191 26 -21 1254 -888 1262 -889 12 -3 233 233 390
417 1197 1399 1940 3216 2101 5136 212 2525 -555 4989 -2120 6810 -102 117
-319 354 -370 402 l-29 27 -630 -409z"/>
<path d="M5916 10640 c-362 -235 -662 -432 -667 -437 -5 -5 26 -37 75 -76 530
-421 972 -1043 1259 -1772 350 -890 454 -1931 291 -2915 -172 -1040 -620
-1951 -1283 -2606 l-131 -130 638 -452 637 -453 84 88 c504 528 947 1272 1228
2063 347 977 476 2090 367 3165 -136 1349 -627 2572 -1409 3510 -95 114 -412
446 -424 444 -3 0 -302 -193 -665 -429z"/>
<path d="M3427 9025 c-307 -200 -561 -365 -563 -368 -3 -3 30 -49 72 -103 177
-226 372 -568 473 -829 154 -401 223 -778 223 -1220 -2 -704 -209 -1350 -618
-1921 -35 -49 -64 -92 -64 -95 0 -7 1071 -766 1092 -774 18 -7 122 122 268
330 220 313 442 762 560 1130 94 295 147 549 192 925 20 162 16 699 -5 882
-86 722 -316 1359 -702 1940 -122 183 -345 470 -364 467 -3 0 -257 -164 -564
-364z"/>
<path d="M892 7634 c-416 -70 -748 -376 -859 -792 -23 -85 -26 -116 -26 -257
0 -141 3 -171 26 -258 67 -252 200 -449 401 -599 268 -200 631 -261 951 -161
634 199 935 940 618 1523 -216 398 -667 619 -1111 544z"/>
</g>
</svg>
